<svg width="80" height="61" viewBox="0 0 80 61" fill="none" xmlns="http://www.w3.org/2000/svg">
<path d="M18.1 5.8C17 2.3 13.8 0 10.2 0H1.4C0.6 0 0 0.600002 0 1.4C0 2.2 0.6 2.8 1.4 2.8H10.2C12.6 2.8 14.6 4.3 15.3 6.6L26.5 41.8C27.4 44.6 29.9 46.4 32.8 46.4H71.4C72.2 46.4 72.8 45.8 72.8 45C72.8 44.2 72.2 43.6 71.4 43.6H32.9C31.2 43.6 29.8 42.5 29.3 41L28.4 38H71.5L80 8.6H19L18.1 5.8Z" fill="black"/>
<path d="M36.5 60.3999C39.2 60.3999 41.3 58.1999 41.3 55.5999C41.3 52.9999 39.1 50.7999 36.5 50.7999C33.8 50.7999 31.7 52.9999 31.7 55.5999C31.7 58.1999 33.8 60.3999 36.5 60.3999Z" fill="black"/>
<path d="M66.4 55.5C66.4 52.8 64.2 50.7 61.6 50.7C58.9 50.7 56.8 52.9 56.8 55.5C56.8 58.1 59 60.2999 61.6 60.2999C64.3 60.3999 66.4 58.2 66.4 55.5Z" fill="black"/>
</svg>
